<svg width="214" height="229" viewBox="0 0 214 229" fill="none" xmlns="http://www.w3.org/2000/svg">
<path d="M114.077 62.9186L72.1107 125.136L29.7315 114.827L29.7321 114.824L112.155 60.9686C113.43 60.1352 114.929 61.6555 114.077 62.9186Z" fill="#E33122"/>
<path d="M72.1095 125.136L29.7303 114.827L0.0520374 227.109C-0.350091 228.631 1.68002 229.552 2.55998 228.247L72.1095 125.136Z" fill="#E33122"/>
<path d="M166.956 148.204L166.951 148.207L86.9359 189.342C85.6513 190.003 84.3319 188.517 85.1396 187.32L210.804 1.01499C211.706 -0.322324 213.781 0.680916 213.293 2.21842L166.956 148.204Z" fill="#2254EB"/>
<path d="M180.376 19.5978L55.9069 204.13C55.1179 205.3 54.0463 206.252 52.7914 206.897L30.1734 218.525C28.8888 219.185 27.5694 217.7 28.3771 216.502L148.992 37.6835C149.616 36.7574 150.42 35.9656 151.355 35.3546L178.454 17.6478C179.729 16.8144 181.228 18.3347 180.376 19.5978Z" fill="#479C2C"/>
</svg>
